# xmcd CD database file
#
# Track frame offsets:
#	150
#	23722
#	43715
#	65964
#	90948
#	116749
#	133579
#	152917
#	174024
#	196453
#	216821
#	250101
#	269829
#	288540
#	311028
#	333304
#
# Disc length: 4795 seconds
#
# Revision: 2
# Processed by: cddbd v1.5.2PL0 Copyright (c) Steve Scherf et al.
# Submitted via: CDex 1.70beta2
#
DISCID=ef12b910
DTITLE=Varios - Lo Esencial de la Salsa
DYEAR=2009
DGENRE=Salsa
TTITLE0=Willie Colon - Idilio
TTITLE1=Luiz Enrique - Tu no le amas, le temes
TTITLE2=Rey Ruiz - Me media mitad
TTITLE3=Willie Gonzales - No podras escarpar de mi
TTITLE4=Nino Segarra - Entre la espalda y la pared
TTITLE5=Grupo Gale - Mi vecina
TTITLE6=Hansel Camacho - Verdades
TTITLE7=Orquesta Pasion Juvenil - Mentiras Tuyas
TTITLE8=Orquesta Canela - Embrujo de Amor
TTITLE9=German Carreño - Vestida de Blanco
TTITLE10=Ruben Blades - Pedro Navaja
TTITLE11=Zayda - Lo quiero a morir
TTITLE12=El Gran Combo de Puerto Rico - El matrimonio
TTITLE13=Eddie Santiago - Que locura enamorarme de ti
TTITLE14=Willy Chirino - Oxigeno
TTITLE15=Hansel, Raul, Luiz Enrique - Ella
EXTD=YEAR: 2009
EXTT0=
EXTT1=
EXTT2=
EXTT3=
EXTT4=
EXTT5=
EXTT6=
EXTT7=
EXTT8=
EXTT9=
EXTT10=
EXTT11=
EXTT12=
EXTT13=
EXTT14=
EXTT15=
PLAYORDER=
